<?xml version="1.0" encoding="UTF-8" standalone="no"?>
<!-- Uploaded to: SVG Repo, www.svgrepo.com, Generator: SVG Repo Mixer Tools -->

<svg
   fill="#000000"
   height="800px"
   width="800px"
   version="1.1"
   id="Icon"
   viewBox="0 0 24 24"
   enable-background="new 0 0 24 24"
   xml:space="preserve"
   sodipodi:docname="hero_whats.svg"
   inkscape:version="1.4.1 (93de688d07, 2025-03-30)"
   xmlns:inkscape="http://www.inkscape.org/namespaces/inkscape"
   xmlns:sodipodi="http://sodipodi.sourceforge.net/DTD/sodipodi-0.dtd"
   xmlns="http://www.w3.org/2000/svg"
   xmlns:svg="http://www.w3.org/2000/svg"><defs
   id="defs1" /><sodipodi:namedview
   id="namedview1"
   pagecolor="#505050"
   bordercolor="#eeeeee"
   borderopacity="1"
   inkscape:showpageshadow="0"
   inkscape:pageopacity="0"
   inkscape:pagecheckerboard="0"
   inkscape:deskcolor="#505050"
   inkscape:zoom="0.6175"
   inkscape:cx="80.97166"
   inkscape:cy="458.2996"
   inkscape:window-width="1908"
   inkscape:window-height="1025"
   inkscape:window-x="0"
   inkscape:window-y="0"
   inkscape:window-maximized="1"
   inkscape:current-layer="Icon" />
<g
   id="WA_Logo"
   transform="translate(0.048583,0.14574899)">
	<g
   id="g1">
		<path
   fill-rule="evenodd"
   clip-rule="evenodd"
   d="M 20.5,3.5 C 18.25,1.25 15.2,0 12,0 5.41,0 0,5.41 0,12 c 0,2.11 0.65,4.11 1.7,5.92 L 0,24 6.33,22.45 C 8.08,23.41 10,24 12,24 18.59,24 24,18.59 24,12 24,8.81 22.76,5.76 20.5,3.5 Z M 12,22 C 10.22,22 8.52,21.41 6.99,20.51 l -0.36,-0.22 -3.76,0.99 1,-3.67 -0.24,-0.38 C 2.64,15.65 2,13.88 2,12 2,6.52 6.52,2 12,2 14.65,2 17.2,3.05 19.08,4.93 20.96,6.81 22,9.35 22,12 22,17.48 17.47,22 12,22 Z m 5.5,-7.55 c -0.3,-0.15 -1.77,-0.87 -2.04,-0.97 -0.27,-0.1 -0.47,-0.15 -0.67,0.15 -0.2,0.3 -0.77,0.97 -0.95,1.17 -0.17,0.2 -0.35,0.22 -0.65,0.07 -0.3,-0.15 -1.26,-0.46 -2.4,-1.48 C 9.9,12.6 9.3,11.62 9.13,11.32 8.96,11.02 9.11,10.86 9.26,10.71 9.39,10.58 9.56,10.36 9.71,10.19 9.86,10.02 9.91,9.89 10.01,9.69 10.11,9.49 10.06,9.32 9.99,9.17 9.91,9.02 9.31,7.55 9.06,6.95 8.82,6.37 8.57,6.45 8.39,6.44 8.22,6.43 8.02,6.43 7.82,6.43 7.62,6.43 7.3,6.51 7.02,6.8 6.75,7.1 5.98,7.83 5.98,9.3 c 0,1.47 1.07,2.89 1.22,3.09 0.15,0.2 2.11,3.22 5.1,4.51 0.71,0.31 1.27,0.49 1.7,0.63 0.72,0.23 1.37,0.2 1.88,0.12 0.57,-0.09 1.77,-0.72 2.02,-1.42 0.25,-0.7 0.25,-1.3 0.17,-1.42 C 18,14.68 17.8,14.6 17.5,14.45 Z"
   id="path1"
   style="fill:#ffffff" />
	</g>
</g>
</svg>
