<?xml version="1.0" encoding="UTF-8" standalone="no"?>
<!-- Created with Inkscape (http://www.inkscape.org/) -->

<svg
   version="1.1"
   id="svg1"
   width="367.08667"
   height="367.08667"
   viewBox="0 0 367.08667 367.08667"
   xmlns="http://www.w3.org/2000/svg"
   xmlns:svg="http://www.w3.org/2000/svg">
  <defs
     id="defs1">
    <clipPath
       clipPathUnits="userSpaceOnUse"
       id="clipPath17">
      <path
         d="M 0,0 H 419.528 V 595.276 H 0 Z"
         transform="translate(-209.7638,-159.9802)"
         id="path17" />
    </clipPath>
    <clipPath
       clipPathUnits="userSpaceOnUse"
       id="clipPath22">
      <path
         d="M 0,0 H 419.528 V 595.276 H 0 Z"
         transform="translate(-176.7079,-361.72511)"
         id="path22" />
    </clipPath>
    <clipPath
       clipPathUnits="userSpaceOnUse"
       id="clipPath24">
      <path
         d="M 0,0 H 419.528 V 595.276 H 0 Z"
         transform="translate(-117.3665,-331.02161)"
         id="path24" />
    </clipPath>
    <clipPath
       clipPathUnits="userSpaceOnUse"
       id="clipPath26">
      <path
         d="M 0,0 H 419.528 V 595.276 H 0 Z"
         transform="translate(-116.4431,-295.64521)"
         id="path26" />
    </clipPath>
    <clipPath
       clipPathUnits="userSpaceOnUse"
       id="clipPath28">
      <path
         d="M 0,0 H 419.528 V 595.276 H 0 Z"
         transform="translate(-198.34501,-339.55981)"
         id="path28" />
    </clipPath>
  </defs>
  <g
     id="g14"
     transform="translate(-1295.6885,-191.74535)">
    <g
       id="g29"
       transform="translate(620.17544,-21.562392)">
      <g
         id="g15">
        <path
           id="path16"
           d="m 0,0 c 76.026,0 137.658,61.631 137.658,137.657 0,76.027 -61.632,137.658 -137.658,137.658 -76.026,0 -137.657,-61.631 -137.657,-137.658 C -137.657,61.631 -76.026,0 0,0"
           style="fill:#ffffff;fill-opacity:1;fill-rule:nonzero;stroke:none"
           transform="matrix(1.3333333,0,0,-1.3333333,859.05573,580.3944)"
           clip-path="url(#clipPath17)" />
      </g>
      <g
         id="g17">
        <path
           id="path18"
           d="M 0,0 C 0.02,-0.442 0.037,-0.883 0.047,-1.328 0.054,-1.594 0.057,-1.861 0.061,-2.127 0.064,-2.4 0.067,-2.673 0.067,-2.949 V -2.956 C 0.067,-3.229 0.064,-3.505 0.061,-3.778 0.057,-4.041 0.054,-4.301 0.047,-4.56 0.027,-5.4 -0.01,-6.232 -0.064,-7.061 -0.081,-7.318 -0.098,-7.574 -0.118,-7.83 c -0.017,-0.232 -0.034,-0.465 -0.054,-0.698 -0.02,-0.225 -0.04,-0.451 -0.064,-0.677 -0.024,-0.229 -0.044,-0.458 -0.071,-0.688 -0.023,-0.225 -0.05,-0.455 -0.077,-0.68 -0.064,-0.53 -0.132,-1.059 -0.209,-1.585 -0.054,-0.377 -0.111,-0.751 -0.172,-1.125 -0.037,-0.226 -0.074,-0.449 -0.115,-0.674 -0.033,-0.206 -0.07,-0.412 -0.108,-0.614 -0.05,-0.263 -0.097,-0.522 -0.151,-0.782 -0.037,-0.202 -0.078,-0.404 -0.122,-0.603 -0.138,-0.668 -0.286,-1.328 -0.441,-1.989 -0.054,-0.209 -0.105,-0.421 -0.158,-0.63 -0.132,-0.529 -0.274,-1.055 -0.419,-1.581 -0.037,-0.128 -0.07,-0.256 -0.107,-0.384 -0.614,-2.15 -1.339,-4.254 -2.168,-6.306 -0.236,-0.587 -0.478,-1.167 -0.731,-1.743 -0.28,-0.637 -0.57,-1.267 -0.87,-1.894 -0.094,-0.199 -0.188,-0.394 -0.286,-0.593 -0.098,-0.199 -0.196,-0.395 -0.293,-0.59 -0.199,-0.395 -0.401,-0.786 -0.607,-1.173 -0.391,-0.738 -0.795,-1.47 -1.217,-2.194 -0.681,-1.173 -1.399,-2.323 -2.15,-3.445 -0.121,-0.182 -0.243,-0.364 -0.368,-0.543 -0.121,-0.182 -0.246,-0.36 -0.37,-0.539 -0.125,-0.182 -0.25,-0.361 -0.378,-0.536 -0.637,-0.89 -1.291,-1.759 -1.968,-2.615 -0.256,-0.324 -0.516,-0.644 -0.775,-0.961 -0.041,-0.044 -0.081,-0.091 -0.118,-0.142 -0.257,-0.306 -0.513,-0.61 -0.776,-0.913 -0.283,-0.33 -0.569,-0.657 -0.862,-0.981 -0.584,-0.65 -1.177,-1.284 -1.784,-1.911 -0.03,-0.027 -0.057,-0.054 -0.08,-0.084 -0.277,-0.283 -0.557,-0.566 -0.843,-0.843 -0.148,-0.145 -0.3,-0.293 -0.452,-0.438 -0.162,-0.158 -0.323,-0.314 -0.485,-0.468 -7.88,-7.47 -17.655,-12.964 -28.515,-15.673 -0.034,-0.011 -0.071,-0.017 -0.104,-0.027 v -0.149 c -1.841,-3.05 -3.903,-5.979 -6.168,-8.76 -5.659,-6.936 -12.363,-12.737 -19.792,-17.247 h 10.526 c 5.231,0 10.388,0.459 15.434,1.342 0.02,0.003 0.044,0.006 0.064,0.013 1.412,0.246 2.814,0.529 4.206,0.846 0.155,0.034 0.314,0.071 0.472,0.108 0.546,0.125 1.092,0.26 1.638,0.398 1.78,0.448 3.546,0.954 5.292,1.517 0.236,0.074 0.472,0.151 0.708,0.232 0.455,0.145 0.91,0.3 1.361,0.458 0.297,0.105 0.587,0.206 0.88,0.314 0.084,0.027 0.172,0.057 0.256,0.091 0.29,0.104 0.58,0.212 0.87,0.324 0.398,0.144 0.788,0.296 1.183,0.451 2.076,0.816 4.119,1.712 6.124,2.683 0.502,0.246 1.005,0.492 1.5,0.745 1.739,0.886 3.455,1.83 5.137,2.831 0.239,0.145 0.478,0.29 0.718,0.435 0.448,0.273 0.893,0.549 1.338,0.829 0.266,0.169 0.532,0.341 0.795,0.513 0.236,0.151 0.472,0.306 0.705,0.461 0.222,0.149 0.445,0.297 0.667,0.445 0.708,0.482 1.412,0.971 2.107,1.473 0.229,0.162 0.458,0.33 0.684,0.496 0.202,0.148 0.401,0.293 0.6,0.444 0.189,0.142 0.377,0.284 0.566,0.432 1.288,0.974 2.555,1.992 3.795,3.043 0.182,0.152 0.361,0.307 0.54,0.462 0.367,0.317 0.734,0.641 1.095,0.964 0.401,0.357 0.799,0.718 1.193,1.082 0.233,0.216 0.469,0.435 0.701,0.654 0.206,0.196 0.415,0.394 0.62,0.593 0.256,0.246 0.513,0.496 0.769,0.749 0.152,0.151 0.307,0.303 0.458,0.455 1.305,1.304 2.562,2.642 3.775,4.01 0.725,0.82 1.433,1.652 2.13,2.495 0.226,0.283 0.459,0.566 0.688,0.849 0.681,0.853 1.345,1.712 1.992,2.582 0.216,0.293 0.428,0.586 0.644,0.88 0.633,0.879 1.254,1.766 1.857,2.662 1.399,2.1 2.71,4.254 3.923,6.455 0.347,0.627 0.684,1.257 1.015,1.894 0.165,0.317 0.327,0.637 0.489,0.961 0.323,0.637 0.637,1.281 0.943,1.928 5.514,11.655 8.423,24.483 8.423,37.76 0,0.984 -0.017,1.968 -0.05,2.949 z"
           style="fill:#000000;fill-opacity:1;fill-rule:nonzero;stroke:none"
           transform="matrix(1.3333333,0,0,-1.3333333,980.9048,392.91427)" />
        <path
           id="path19"
           d="m 0,0 c 9.245,11.342 14.79,25.818 14.79,41.589 v 36.567 h 47.093 24.72 c -1.349,8.48 -3.917,16.65 -7.614,24.308 H 50.646 -9.653 -31.087 L -43.523,78.156 H -22.09 -9.478 V 43.79 c 0,-23.449 -18.43,-42.593 -41.596,-43.739 h -26.465 v -24.322 l 26.459,-0.004 h 0.006 C -30.47,-24.275 -12.076,-14.813 0,0"
           style="fill:#000000;fill-opacity:1;fill-rule:nonzero;stroke:none"
           transform="matrix(1.3333333,0,0,-1.3333333,896.4032,482.29187)" />
        <path
           id="path20"
           d="M 176.708,275.344 H 152.44 v -66.062 h 24.268 z"
           style="fill:#000000;fill-opacity:1;fill-rule:nonzero;stroke:none"
           transform="matrix(1.3333333,0,0,-1.3333333,579.37067,793.70133)" />
        <path
           id="path21"
           d="m 0,0 h 51.589 8.834 c 2.659,0 5.282,-0.164 7.857,-0.482 2.575,-0.318 5.104,-0.789 7.576,-1.402 0.408,-0.101 0.816,-0.206 1.221,-0.314 0.037,-0.013 0.074,-0.023 0.111,-0.03 1.27,-0.347 2.528,-0.731 3.768,-1.149 0.014,-0.007 0.03,-0.014 0.047,-0.017 0.422,-0.145 0.84,-0.29 1.257,-0.442 0.418,-0.155 0.833,-0.31 1.244,-0.468 2.066,-0.802 4.082,-1.706 6.04,-2.707 0.01,-0.007 0.02,-0.013 0.031,-0.013 0.38,-0.199 0.758,-0.398 1.135,-0.6 0.762,-0.411 1.514,-0.836 2.255,-1.271 0.01,-0.01 0.024,-0.017 0.037,-0.023 0.374,-0.226 0.752,-0.452 1.123,-0.685 0.371,-0.229 0.741,-0.465 1.109,-0.701 0.721,-0.472 1.435,-0.954 2.14,-1.453 0.037,-0.026 0.081,-0.057 0.121,-0.084 0.324,-0.232 0.647,-0.468 0.968,-0.704 0.35,-0.26 0.701,-0.523 1.044,-0.789 0.348,-0.266 0.688,-0.536 1.029,-0.812 0.01,-0.007 0.02,-0.014 0.03,-0.024 0.168,-0.138 0.337,-0.273 0.505,-0.411 h 32.567 c -0.493,0.725 -0.995,1.443 -1.51,2.15 -0.213,0.294 -0.429,0.587 -0.644,0.88 -0.647,0.873 -1.311,1.733 -1.992,2.582 -0.229,0.283 -0.459,0.566 -0.688,0.849 -0.694,0.843 -1.402,1.676 -2.13,2.495 -1.21,1.368 -2.467,2.706 -3.775,4.01 v 0.004 c -0.522,0.522 -1.048,1.035 -1.581,1.54 -0.266,0.253 -0.532,0.506 -0.802,0.755 -0.239,0.223 -0.479,0.442 -0.721,0.664 -0.3,0.273 -0.604,0.546 -0.907,0.812 -0.819,0.728 -1.651,1.44 -2.497,2.131 -0.28,0.229 -0.563,0.458 -0.846,0.687 -0.54,0.432 -1.082,0.856 -1.628,1.274 -0.031,0.024 -0.061,0.047 -0.091,0.068 -0.284,0.215 -0.573,0.431 -0.86,0.647 -0.583,0.435 -1.173,0.859 -1.766,1.277 -0.297,0.209 -0.59,0.415 -0.89,0.62 -0.28,0.193 -0.563,0.385 -0.846,0.577 -0.819,0.549 -1.648,1.082 -2.484,1.601 -0.175,0.111 -0.351,0.219 -0.529,0.327 -0.226,0.141 -0.455,0.28 -0.684,0.414 -0.307,0.186 -0.617,0.368 -0.927,0.55 -0.246,0.145 -0.496,0.286 -0.742,0.428 -0.226,0.128 -0.448,0.256 -0.674,0.381 -1.405,0.785 -2.835,1.533 -4.277,2.234 -0.32,0.159 -0.644,0.314 -0.967,0.469 -0.007,0.003 -0.014,0.007 -0.021,0.01 -0.316,0.148 -0.633,0.296 -0.954,0.442 -0.3,0.138 -0.599,0.272 -0.899,0.407 -0.354,0.155 -0.708,0.31 -1.062,0.462 -0.304,0.131 -0.603,0.256 -0.907,0.384 -0.027,0.01 -0.057,0.024 -0.084,0.034 -0.331,0.138 -0.664,0.273 -0.994,0.404 -0.998,0.402 -2.003,0.782 -3.014,1.14 -0.337,0.121 -0.677,0.239 -1.014,0.357 -0.341,0.115 -0.678,0.229 -1.018,0.344 -0.341,0.111 -0.681,0.222 -1.025,0.33 -0.684,0.219 -1.368,0.425 -2.059,0.624 -0.688,0.199 -1.382,0.391 -2.077,0.573 -0.347,0.091 -0.694,0.182 -1.044,0.266 -0.671,0.172 -1.345,0.33 -2.023,0.482 -0.027,0.007 -0.05,0.013 -0.077,0.017 -0.351,0.077 -0.701,0.155 -1.055,0.229 -0.351,0.074 -0.705,0.148 -1.058,0.216 -0.354,0.07 -0.708,0.138 -1.062,0.205 -0.29,0.054 -0.583,0.108 -0.877,0.159 -1.892,0.332 -3.8,0.603 -5.722,0.813 -3.203,0.348 -6.444,0.525 -9.711,0.525 H 51.589 -24.268 V -15.29 H 0 Z"
           style="fill:#000000;fill-opacity:1;fill-rule:nonzero;stroke:none"
           transform="matrix(1.3333333,0,0,-1.3333333,814.9812,311.4012)"
           clip-path="url(#clipPath22)" />
        <path
           id="path23"
           d="m 0,0 c -0.568,1.445 -1.359,2.688 -2.372,3.728 -1.014,1.039 -2.221,1.845 -3.623,2.419 -1.401,0.573 -2.936,0.86 -4.602,0.86 h -8.978 l -3.75,-6.236 h 12.728 c 0.795,0 1.534,-0.15 2.216,-0.448 0.682,-0.299 1.278,-0.706 1.79,-1.219 0.511,-0.514 0.909,-1.129 1.193,-1.846 0.284,-0.717 0.426,-1.494 0.426,-2.33 0,-0.86 -0.142,-1.643 -0.426,-2.347 -0.284,-0.705 -0.672,-1.309 -1.165,-1.81 -0.492,-0.502 -1.084,-0.891 -1.775,-1.165 -0.692,-0.275 -1.445,-0.412 -2.259,-0.412 h -6.818 v 8.781 h -5.91 v -14.946 h 12.728 c 1.648,0 3.172,0.31 4.574,0.932 1.401,0.621 2.609,1.475 3.622,2.562 1.013,1.087 1.809,2.378 2.387,3.871 0.577,1.493 0.866,3.112 0.866,4.857 C 0.852,-3.029 0.568,-1.446 0,0 M 8.097,7.007 H 2.216 V -16.971 H 8.097 Z M 30.54,-17.115 c 0.398,0.167 0.744,0.436 1.037,0.807 0.294,0.37 0.53,0.842 0.711,1.416 0.179,0.573 0.27,1.254 0.27,2.043 V 7.007 h -5.37 V -7.079 L 15.54,6.111 c -0.474,0.549 -0.895,0.902 -1.264,1.057 -0.37,0.156 -0.735,0.233 -1.094,0.233 -0.417,0 -0.82,-0.084 -1.208,-0.25 C 11.586,6.983 11.245,6.72 10.952,6.362 10.658,6.004 10.421,5.538 10.241,4.964 10.061,4.391 9.971,3.71 9.971,2.921 v -19.892 h 5.342 v 14.086 l 11.648,-13.19 c 0.454,-0.55 0.866,-0.902 1.236,-1.058 0.369,-0.155 0.743,-0.232 1.122,-0.232 0.416,0 0.824,0.084 1.221,0.25 m 6.648,21.542 c -2.311,-1.984 -3.466,-5.114 -3.466,-9.391 0,-4.301 1.151,-7.444 3.452,-9.427 2.301,-1.983 5.781,-2.974 10.441,-2.974 4.64,0 8.115,0.991 10.426,2.974 2.311,1.983 3.466,5.126 3.466,9.427 0,4.277 -1.16,7.407 -3.48,9.391 -2.32,1.983 -5.791,2.974 -10.412,2.974 -4.641,0 -8.116,-0.991 -10.427,-2.974 m 6.676,-15.323 c -1.022,0.155 -1.851,0.46 -2.485,0.914 -0.635,0.454 -1.094,1.081 -1.378,1.882 -0.284,0.8 -0.427,1.846 -0.427,3.136 0,1.29 0.143,2.335 0.427,3.136 0.284,0.8 0.743,1.421 1.378,1.864 0.634,0.442 1.463,0.74 2.485,0.896 1.023,0.155 2.273,0.233 3.751,0.233 1.477,0 2.727,-0.078 3.75,-0.233 1.022,-0.156 1.851,-0.454 2.486,-0.896 0.634,-0.443 1.093,-1.064 1.377,-1.864 0.285,-0.801 0.427,-1.846 0.427,-3.136 0,-1.29 -0.142,-2.336 -0.427,-3.136 -0.284,-0.801 -0.743,-1.428 -1.377,-1.882 -0.635,-0.454 -1.464,-0.759 -2.486,-0.914 -1.023,-0.156 -2.273,-0.233 -3.75,-0.233 -1.478,0 -2.728,0.077 -3.751,0.233"
           style="fill:#000000;fill-opacity:1;fill-rule:nonzero;stroke:none"
           transform="matrix(1.3333333,0,0,-1.3333333,735.85933,352.3392)"
           clip-path="url(#clipPath24)" />
        <path
           id="path25"
           d="m 0,0 c 0.312,0.274 0.587,0.621 0.824,1.039 0.236,0.418 0.43,0.902 0.582,1.452 0.152,0.549 0.228,1.183 0.228,1.9 0,1.098 -0.176,2.061 -0.526,2.885 -0.351,0.824 -0.852,1.517 -1.506,2.079 -0.653,0.561 -1.439,0.979 -2.358,1.254 -0.919,0.275 -1.946,0.412 -3.082,0.412 h -12.586 l -3.977,-6.236 h 16.818 c 0.417,0 0.796,-0.108 1.137,-0.323 0.341,-0.215 0.511,-0.621 0.511,-1.218 0,-0.622 -0.166,-1.046 -0.497,-1.273 -0.332,-0.227 -0.715,-0.34 -1.151,-0.34 h -16.818 v -14.588 h 16.705 c 1.496,0 2.741,0.179 3.736,0.538 0.994,0.358 1.785,0.848 2.372,1.469 0.587,0.621 1.004,1.356 1.25,2.205 0.246,0.847 0.369,1.774 0.369,2.777 0,1.434 -0.289,2.604 -0.866,3.513 -0.578,0.908 -1.284,1.517 -2.117,1.828 C -0.63,-0.484 -0.313,-0.275 0,0 m -5.668,-3.495 c 0.644,0 1.108,-0.137 1.392,-0.412 0.284,-0.275 0.426,-0.675 0.426,-1.2 0,-0.55 -0.142,-0.968 -0.426,-1.255 -0.284,-0.287 -0.748,-0.43 -1.392,-0.43 h -10.824 v 3.297 z m 32.416,-4.802 c -0.663,0.836 -1.193,1.493 -1.591,1.971 -0.398,0.478 -0.758,0.872 -1.08,1.183 0.777,0.191 1.473,0.519 2.088,0.985 0.616,0.466 1.137,1.034 1.563,1.703 0.426,0.669 0.753,1.421 0.98,2.258 0.227,0.836 0.341,1.72 0.341,2.652 0,1.721 -0.308,3.13 -0.923,4.23 -0.616,1.098 -1.397,1.971 -2.344,2.616 -0.947,0.645 -1.999,1.093 -3.154,1.344 -1.155,0.251 -2.272,0.376 -3.352,0.376 H 7.06 L 3.224,4.785 h 16.535 c 1.023,0 1.818,-0.233 2.386,-0.699 0.569,-0.466 0.853,-1.165 0.853,-2.097 0,-0.836 -0.313,-1.493 -0.938,-1.971 -0.625,-0.478 -1.392,-0.717 -2.301,-0.717 H 3.224 v -12.258 h 5.881 v 6.344 h 9.035 l 4.233,-6.344 h 7.869 z m 34.035,-4.66 -11.875,21.685 c -0.417,0.764 -0.924,1.403 -1.52,1.917 -0.597,0.514 -1.34,0.771 -2.231,0.771 -0.928,0 -1.695,-0.275 -2.301,-0.825 C 42.25,10.041 41.748,9.42 41.351,8.728 L 29.163,-12.957 h 6.96 l 8.921,15.914 3.409,-6.344 c 0.322,-0.574 0.658,-1.189 1.009,-1.846 0.35,-0.657 0.658,-1.201 0.923,-1.631 -0.455,0.048 -0.99,0.072 -1.605,0.072 H 47.004 42.231 L 38.68,-12.957 Z M 50.556,11.021 62.46,-10.663 c 0.416,-0.765 0.923,-1.404 1.519,-1.918 0.597,-0.513 1.34,-0.77 2.231,-0.77 0.909,0 1.666,0.275 2.272,0.824 0.606,0.55 1.118,1.171 1.535,1.864 l 17.196,31.648 2.99,19.391 -23.88,-45.268 -8.551,15.913 z M 82.915,8.441 C 80.604,6.457 79.449,3.327 79.449,-0.95 c 0,-4.301 1.151,-7.443 3.452,-9.426 2.301,-1.984 5.781,-2.975 10.441,-2.975 4.64,0 8.115,0.991 10.426,2.975 2.311,1.983 3.466,5.125 3.466,9.426 0,4.277 -1.16,7.407 -3.48,9.391 -2.32,1.983 -5.791,2.975 -10.412,2.975 -4.641,0 -8.116,-0.992 -10.427,-2.975 m 6.676,-15.323 c -1.022,0.155 -1.851,0.46 -2.486,0.914 -0.634,0.454 -1.093,1.081 -1.377,1.882 -0.285,0.8 -0.427,1.846 -0.427,3.136 0,1.291 0.142,2.336 0.427,3.136 0.284,0.801 0.743,1.422 1.377,1.864 0.635,0.442 1.464,0.741 2.486,0.896 1.023,0.155 2.273,0.233 3.751,0.233 1.477,0 2.727,-0.078 3.75,-0.233 1.022,-0.155 1.851,-0.454 2.486,-0.896 0.634,-0.442 1.093,-1.063 1.377,-1.864 0.285,-0.8 0.427,-1.845 0.427,-3.136 0,-1.29 -0.142,-2.336 -0.427,-3.136 -0.284,-0.801 -0.743,-1.428 -1.377,-1.882 -0.635,-0.454 -1.464,-0.759 -2.486,-0.914 -1.023,-0.155 -2.273,-0.233 -3.75,-0.233 -1.478,0 -2.728,0.078 -3.751,0.233"
           style="fill:#000000;fill-opacity:1;fill-rule:nonzero;stroke:none"
           transform="matrix(1.3333333,0,0,-1.3333333,734.62813,399.50773)"
           clip-path="url(#clipPath26)" />
        <path
           id="path27"
           d="m 0,0 c 0,4.048 -3.282,7.33 -7.33,7.33 -4.048,0 -7.33,-3.282 -7.33,-7.33 0,-4.048 3.282,-7.33 7.33,-7.33 C -3.282,-7.33 0,-4.048 0,0 m -1.1,0 c 0,-3.441 -2.789,-6.23 -6.23,-6.23 -3.441,0 -6.231,2.789 -6.231,6.23 0,3.441 2.79,6.23 6.231,6.23 3.441,0 6.23,-2.789 6.23,-6.23 m -4.411,-1.22 c -0.244,0.26 -0.552,0.5 -0.926,0.718 0.752,0.109 1.316,0.373 1.694,0.791 0.377,0.418 0.566,0.949 0.566,1.591 0,0.506 -0.125,0.956 -0.374,1.349 C -4.8,3.622 -5.132,3.896 -5.546,4.049 -5.961,4.203 -6.626,4.28 -7.54,4.28 h -3.638 v -8.56 h 1.728 v 3.574 h 0.351 c 0.397,0 0.687,-0.033 0.87,-0.097 0.183,-0.064 0.356,-0.183 0.519,-0.356 0.164,-0.173 0.468,-0.593 0.911,-1.258 l 1.25,-1.863 h 2.067 l -1.045,1.67 c -0.413,0.666 -0.741,1.129 -0.984,1.39 M -6.618,0.765 C -6.824,0.695 -7.342,0.66 -8.171,0.66 H -9.45 v 2.172 h 1.349 c 0.701,0 1.121,-0.01 1.261,-0.029 0.281,-0.047 0.498,-0.159 0.652,-0.336 0.153,-0.177 0.23,-0.41 0.23,-0.698 0,-0.257 -0.058,-0.471 -0.175,-0.642 C -6.25,0.956 -6.411,0.835 -6.618,0.765"
           style="fill:#000000;fill-opacity:1;fill-rule:nonzero;stroke:none"
           transform="matrix(1.3333333,0,0,-1.3333333,843.83067,340.95493)"
           clip-path="url(#clipPath28)" />
      </g>
    </g>
  </g>
</svg>
